<svg xmlns="http://www.w3.org/2000/svg" width="512" height="512" viewBox="0 0 512 512">
  <rect width="100%" height="100%" fill="#3b82f6"/>
  <circle cx="256" cy="256" r="170" fill="#fde68a"/>
  <path d="M256 128 C 186 128, 128 186, 128 256 C 128 326, 186 384, 256 384 C 326 384, 384 326, 384 256 C 384 186, 326 128, 256 128 Z M 256 341 C 208 341, 171 304, 171 256 C 171 208, 208 171, 256 171 C 304 171, 341 208, 341 256 C 341 304, 304 341, 256 341 Z" fill="#3b82f6"/>
  <circle cx="256" cy="256" r="42" fill="#3b82f6"/>
</svg>